<?xml version="1.0" encoding="utf-8"?>
<!-- Generator: Adobe Illustrator 20.0.0, SVG Export Plug-In . SVG Version: 6.00 Build 0)  -->
<!DOCTYPE svg PUBLIC "-//W3C//DTD SVG 1.1//EN" "http://www.w3.org/Graphics/SVG/1.1/DTD/svg11.dtd">
<svg version="1.1" id="Capa_1" xmlns="http://www.w3.org/2000/svg" xmlns:xlink="http://www.w3.org/1999/xlink" x="0px" y="0px"
	 viewBox="0 0 40 40" style="enable-background:new 0 0 40 40;" xml:space="preserve">
<style type="text/css">
	.st0{fill:#68615D;}
</style>
<g>
	<g>
		<path class="st0" d="M0,20c0,11,9,20,20,20s20-9,20-20S31,0,20,0S0,9,0,20z M20,2c9.9,0,18,8.1,18,18c0,4.7-1.8,9.1-4.9,12.3
			c-2.8-1.9-5.3-3.3-6.4-3.8v-2.2c0.3-0.6,0.5-1.2,0.7-1.9c0.8-0.3,1.4-1.2,1.9-3.1c0.5-1.7,0.4-2.9-0.1-3.6
			c0.6-3.3,0.3-5.7-0.8-7.2C27.7,9.5,27,9.2,26.5,9c-0.3-0.5-1-1.2-2.1-1.9c-1.4-0.8-3-1.2-4.7-1c-0.7,0-1.3,0.2-1.9,0.4h0
			c-0.7,0.2-1.4,0.6-2.1,1.1c-0.8,0.5-1.5,1.1-2.1,1.7c-1.2,1.2-2,2.6-2.3,4c-0.3,1.2-0.3,2.4-0.1,3.6c-0.1,0.1-0.2,0.2-0.3,0.3
			c-0.6,0.7-0.6,1.9-0.1,3.6c0.3,1.2,0.8,2.3,1.5,2.9c0.2,1.1,0.6,2.1,1.1,3v1.8c-1.1,0.6-3.6,1.9-6.4,3.8C3.9,29.1,2,24.7,2,20
			C2,10.1,10.1,2,20,2z"/>
	</g>
</g>
</svg>
